<svg width="95" height="88" fill="none" xmlns="http://www.w3.org/2000/svg"><path d="M87.972 22.266a674.162 674.162 0 00-1.695 5.193 42.088 42.088 0 013.486 29.262c-2.403 9.852-8.288 18.542-16.602 24.517a13.063 13.063 0 013.168 2.651c9.351-7.028 15.72-17.222 17.87-28.606 2.151-11.385-.067-23.15-6.227-33.017zM9.605 69.849h1.352a42.231 42.231 0 01-6.762-26.447c.74-9.305 4.553-18.117 10.859-25.09C21.359 11.34 29.81 6.59 39.115 4.786a44.078 44.078 0 0127.477 3.539 22.764 22.764 0 012.462-3.237A48.181 48.181 0 0039.485.671C29.403 2.37 20.147 7.227 13.095 14.518 6.041 21.81 1.57 31.148.342 41.142a46.13 46.13 0 005.942 28.846c1.14-.11 2.27-.14 3.32-.14z" fill="#826550"/><path d="M53.93 81.427c.443-6.097-.878-13.902.665-18.936 4.571-.08 9.646.347 13.268-.655C76.117 47.1 79.971 28.075 86.45 11.552V8.941c-.686-2.98-3.784-3.674-6.64-4.568h-.655C68.46 7.779 67.047 20.36 64.555 31.798c-15.942-4.11-32.59-.059-33.185 15.024-4.561.07-8.072 1.211-9.949 3.912-.575 6.703 1.584 10.675 6.64 11.826a21.93 21.93 0 01-7.306 12.402c-6.457.616-15.77-1.588-19.241 1.986v2.612c3.178 3.833 12.965 1.171 19.241 1.986 6.65-3.982 8.506-12.581 11.946-19.67 4.712.367 10.958-.775 14.6.655v19.59c-7.9.497-15.588 1.202-19.24 5.879h45.12c-3.289-5.253-12.591-4.588-19.25-6.573zM38.007 46.862c.686-11.628 15.467-11.608 25.88-8.49.1 4.687-.525 10.088 1.322 13.057-7.103-.844-17.223-4.369-27.202-4.567z" fill="#826550"/></svg>