<svg width="95" height="91" fill="none" xmlns="http://www.w3.org/2000/svg"><path d="M47.525 8.081a9.334 9.334 0 015.117 1.504 9.054 9.054 0 013.4 4.038 8.845 8.845 0 01.536 5.209 8.955 8.955 0 01-2.51 4.621 9.254 9.254 0 01-4.707 2.475 9.37 9.37 0 01-5.317-.508 9.158 9.158 0 01-4.132-3.319 8.884 8.884 0 01-1.552-5.009 8.92 8.92 0 012.683-6.361 9.291 9.291 0 016.482-2.65z" fill="#826550"/><path d="M68.097 26.093H26.954a2.876 2.876 0 00-2.006.82 2.761 2.761 0 00-.83 1.97v4.421c.002.737.302 1.444.833 1.966a2.886 2.886 0 002.003.823h.838V80.99h-.838a2.876 2.876 0 00-2.006.82 2.76 2.76 0 00-.83 1.97v4.42c0 .74.298 1.449.83 1.973a2.886 2.886 0 002.006.827h41.143a2.886 2.886 0 002.01-.82c.532-.522.833-1.23.836-1.97v-4.43a2.771 2.771 0 00-.837-1.97 2.886 2.886 0 00-2.01-.82h-.837V36.093h.838a2.886 2.886 0 002.01-.82c.532-.522.833-1.23.836-1.969v-4.421a2.771 2.771 0 00-.837-1.97 2.886 2.886 0 00-2.01-.82zm-34.118 10h13.324L33.98 49.15V36.093zM61.071 80.99H47.444l13.627-13.324V80.99zm0-28.398L33.98 79.13V64.224l27.092-26.548v14.916z" fill="#826550"/><path d="M47.525 0c-9.98 0-19.708 3.078-27.803 8.8-8.095 5.72-14.146 13.795-17.295 23.076a45.68 45.68 0 00-.248 28.63c2.987 9.333 8.897 17.507 16.892 23.362v-.089a7.669 7.669 0 011.18-4.055C13.239 74.196 8.149 66.67 5.684 58.188a41.8 41.8 0 01.808-25.826c2.99-8.32 8.542-15.524 15.888-20.62 7.346-5.097 16.125-7.834 25.126-7.834 9 0 17.78 2.737 25.126 7.834 7.346 5.096 12.898 12.3 15.888 20.62a41.8 41.8 0 01.808 25.826c-2.465 8.483-7.555 16.008-14.569 21.536a7.592 7.592 0 011.192 4.055v.09c7.986-5.858 13.889-14.029 16.873-23.356a45.689 45.689 0 00-.246-28.616C89.433 22.62 83.39 14.548 75.305 8.823 67.219 3.1 57.5.012 47.525 0z" fill="#826550"/></svg>