<svg width="95" height="94" fill="none" xmlns="http://www.w3.org/2000/svg"><path d="M90.282 28.35a47.296 47.296 0 00-8.495-13.076l-1.999 3.773a43.062 43.062 0 016.417 9.982c1.359-.23 2.718-.45 4.078-.679zm-.279 15.142a45.7 45.7 0 01.15 3.514 42.973 42.973 0 01-12.608 30.403 43.085 43.085 0 01-30.44 12.598c-.779 0-1.559-.02-2.338-.06.16.6.248 1.217.26 1.837a6.602 6.602 0 01-.4 2.146c.83 0 1.669.07 2.518.07a47.136 47.136 0 0033.233-13.793A47.014 47.014 0 0094.16 47.006a48.021 48.021 0 00-.41-6.149 37.577 37.577 0 01-3.747 2.635zM4.048 47.006c0-7.551 1.992-14.97 5.774-21.508a43.029 43.029 0 0115.77-15.74 43.1 43.1 0 0143.072.026c1.08-.858 2.209-1.727 3.358-2.615a47.084 47.084 0 00-37.58-5.452 47.066 47.066 0 00-17.221 8.93A46.995 46.995 0 005.074 25.76a46.937 46.937 0 008.448 54.188 47.048 47.048 0 0016.173 10.708 18.326 18.326 0 01-.57-4.582 43.02 43.02 0 01-18.271-15.863 42.94 42.94 0 01-6.805-23.205z" fill="#826550"/><path d="M38.8 84.767c7.736-2.715 16.301-9.652 14.532-19.794-.9-5.13-4.477-4.99-7.266-9.233C60.498 43.762 70.263 27.132 79.05 9.565h-2c-7.446 5.65-21.898 16.968-28.404 26.381-2.599 3.773-4.588 9.293-7.266 13.855-4.538 7.726-15.112 21.191-6.607 31.003-1.38 4.612-1.2 12.367 3.998 12.537 3.258-1.727-1.36-4.601.03-8.574zm8.306-38.76a2.59 2.59 0 012.4 1.592 2.583 2.583 0 01-1.888 3.53 2.591 2.591 0 01-2.659-1.106 2.582 2.582 0 01.326-3.258 2.59 2.59 0 011.82-.757zM36.82 74.876c-1.859-8.984 6.996-16.919 11.884-9.233.26 7.396-6.177 15.731-11.884 9.233z" fill="#826550"/><path d="M56.02 51.118c13.993-5.19 30.565-7.735 38.98-18.466-9.405 1.378-18.11 3.464-27.735 4.612-2.199 6.228-7.086 9.662-11.244 13.854zM12.384 39.939C8.156 52.166 20.8 55.909 34.172 53.794c3.788-4.812 5.847-9.982 2-15.841-4.908-7.477-20.91-6.389-23.788 1.986zm5.277 7.257c-5.117-10.85 12.883-11.08 14.532-5.26 2.18 7.565-9.095 7.985-14.532 5.23v.03z" fill="#826550"/></svg>