<svg width="23" height="21" fill="none" xmlns="http://www.w3.org/2000/svg"><path d="M22.729 0h-.104c-1.042 3.267-1.313 7.248-4.169 8.762-.531-1.425-1.844-2.079-3.324-2.703a10.34 10.34 0 00-2.96-1.109 1.088 1.088 0 00-.677.13 1.088 1.088 0 00-.667-.13 10.34 10.34 0 00-2.95 1.11c-1.49.623-2.792 1.277-3.324 2.702C1.678 7.248 1.407 3.267.375 0H.271C.151.322.061.653 0 .99c.049 4.045.334 8.084.855 12.1.552 2.672 2.72 4.593 4.825 5.86 1.47.852 3.803 2.05 5.784 2.05 1.98 0 4.377-1.198 5.856-2.05 2.085-1.267 4.263-3.188 4.825-5.86.52-4.016.806-8.055.855-12.1a5.892 5.892 0 00-.271-.99zm-6.253 11.881c-.06.363-.236.7-.504.963a1.906 1.906 0 01-.996.512c-1.334.07-2.012-1.87-3.513-1.861-1.5.01-2.178 1.93-3.511 1.861a1.903 1.903 0 01-.978-.519 1.749 1.749 0 01-.492-.956c-.05-.427-.01-.858.12-1.27a3.16 3.16 0 01.63-1.126c.49-.455 1.261-.396 2.085-.505a3.951 3.951 0 002.146-.802 3.98 3.98 0 002.168.832c.834.109 1.605.05 2.085.505.29.324.51.701.646 1.107.136.407.186.835.146 1.26h-.032z" fill="#826550"/></svg>