<svg width="58" height="68" fill="none" xmlns="http://www.w3.org/2000/svg"><path d="M51.886 21.993c.12-1.684.472-3.477.723-5.35.684-5.379 1.61-11.56-.12-16.643h-.201c-1.368 3.705-1.307 8.272-2.212 12.245a19.29 19.29 0 01-3.258 7.49c-.533.683-1.066 1.535-1.93 1.782-.644-3.883-4.304-4.893-7.683-6.3-2.142-.882-4.022-1.982-6.154-2.14a11.49 11.49 0 00-2.01.228 11.496 11.496 0 00-2.012-.228c-2.162.149-4.022 1.258-6.154 2.14-3.408 1.406-7.038 2.417-7.722 6.3-.865-.247-1.398-1.1-1.93-1.783a19.594 19.594 0 01-3.258-7.49C7.04 8.273 7.09 3.706 5.753 0H5.51c-1.73 5.082-.824 11.264-.12 16.643.25 1.873.603 3.666.723 5.35C6.91 32.94-.874 44.897.081 50.643c.936 7.46 8.447 9.313 14.239 12.245 4.373 2.22 8.355 4.953 13.393 5.112h2.574c5.028-.208 9.05-2.903 13.394-5.112 5.791-2.972 13.303-4.785 14.238-12.245.955-5.746-6.828-17.703-6.033-28.65zM29 25.758a37.29 37.29 0 01-7.2-.506c.664-2.03 4.023-1.545 7.12-1.545h.16c3.017 0 6.456-.486 7.12 1.545-2.378.401-4.79.57-7.2.506z" fill="#826550"/></svg>