<svg width="63" height="78" fill="none" xmlns="http://www.w3.org/2000/svg"><path d="M63 41.738c0-5.178-2.393-7.722-3.635-9.938a54.731 54.731 0 01-4.24-17.49C55.055 9.43 53.419 1.988 52.217 0c-.878 0-1.534 7.731-2.302 11.567-1.443 6.957-3.806 8.875-4.482 8.944-.768-2.792-4.15-7.314-13.812-7.682h-.252c-9.652.358-13.044 4.89-13.802 7.682-.686-.07-3.028-1.987-4.482-8.944C12.317 7.731 11.65 0 10.783 0 9.58 1.988 7.946 9.43 7.875 14.31a55.282 55.282 0 01-4.24 17.49C2.393 34.016 0 36.56 0 41.738c0 3.717 5.25 7.155 5.694 11.329.121 1.212 0 2.335.121 3.339C7.835 73.776 23.857 78 31.5 78c7.643 0 23.665-4.224 25.685-21.594.151-.994 0-2.127.12-3.34C57.75 48.894 63 45.465 63 41.739zM33.56 26.593a21.81 21.81 0 00-4.12 0c-1.746.338-5.815.994-5.815-1.073 0-1.064 6.785-2.276 7.875-2.276 1.09 0 7.875 1.212 7.875 2.276 0 2.057-4.038 1.41-5.815 1.073z" fill="#826550"/></svg>