<svg width="142" height="139" fill="none" xmlns="http://www.w3.org/2000/svg"><path d="M71.997 21.377V.997a.993.993 0 00-.293-.705 1.005 1.005 0 00-1.711.704v20.381h2.004zm-26.12 6.953a43.255 43.255 0 011.734-.996L37.347 9.702a1.002 1.002 0 00-1.348-.328.997.997 0 00-.386 1.324L45.877 28.33zm-35.353 6.266a.99.99 0 00.361 1.354l17.731 10.23a43.51 43.51 0 011.003-1.723l-17.721-10.23a1.007 1.007 0 00-1.373.369zm96.134-26.109a1.01 1.01 0 00-1.114.067.992.992 0 00-.259.292L94.46 27.374a97.65 97.65 0 011.734.996l10.825-18.518a1.005 1.005 0 00.104-.757.998.998 0 00-.465-.608zm25.429 27.045a.986.986 0 00.471-.606.992.992 0 00-.712-1.222 1.008 1.008 0 00-.761.105l-18.654 10.728a57.03 57.03 0 011.003 1.723l18.653-10.728zM22.552 69.5v-.996H1.002c-.266 0-.52.105-.708.292a.993.993 0 000 1.408c.188.187.442.292.708.292h21.58c-.01-.329-.03-.657-.03-.996zm118.446-.996h-21.58v1.992h21.58A1.003 1.003 0 00142 69.5a1.003 1.003 0 00-1.002-.996zm-9.893 34.546l-17.722-10.23c-.32.577-.651 1.155-1.002 1.723l17.721 10.23a1.002 1.002 0 001.459-.608.992.992 0 00-.456-1.115zm-121.202.418a1.007 1.007 0 00-.465.608.992.992 0 00.104.757 1.01 1.01 0 00.872.498.933.933 0 00.501-.14L29.57 94.473c-.351-.568-.672-1.146-1.003-1.733L9.903 103.468zm86.22 7.202c-.57.349-1.152.677-1.744.996l10.264 17.632a1.01 1.01 0 00.872.498.932.932 0 00.501-.14.998.998 0 00.461-.603.986.986 0 00-.1-.751L96.123 110.67zm-61.152 18.478a.997.997 0 00.075 1.109 1.007 1.007 0 001.66-.103l10.835-18.528c-.592-.328-1.173-.647-1.734-.996L34.97 129.148zm35.022-11.525v20.381c0 .264.105.517.293.704a1.005 1.005 0 001.711-.704v-20.381h-2.004zm34.991-65.933a1.498 1.498 0 00.74-1.49 1.49 1.49 0 00-.576-.992 1.499 1.499 0 00-1.112-.296c-.196.026-.384.09-.556.187L74.984 65.486a5.666 5.666 0 00-4.01-1.654 5.695 5.695 0 00-4.008 1.654L46.628 53.7a1.518 1.518 0 00-2.064.538 1.492 1.492 0 00.54 2.052l20.408 11.775a5.603 5.603 0 00.794 4.569 5.66 5.66 0 001.722 1.64 5.697 5.697 0 006.714-.556 5.643 5.643 0 001.424-1.903 5.608 5.608 0 00.512-2.316c0-.481-.065-.96-.19-1.424l28.496-16.387zM70.995 72.21c-.53 0-1.047-.156-1.487-.449a2.663 2.663 0 01-.986-1.193 2.644 2.644 0 01.58-2.899 2.683 2.683 0 012.917-.576 2.656 2.656 0 011.652 2.457c-.013.697-.3 1.36-.801 1.848-.5.488-1.174.762-1.875.762v.05z" fill="#fff"/></svg>