<svg width="58" height="57" fill="none" xmlns="http://www.w3.org/2000/svg"><path d="M29.407 8.766V.408A.408.408 0 0028.71.12a.408.408 0 00-.12.288v8.358h.818zm-10.669 2.851c.234-.143.471-.278.709-.408l-4.193-7.23a.41.41 0 00-.708.408l4.192 7.23zm-14.439 2.57a.408.408 0 00.147.555l7.242 4.195c.131-.237.266-.474.41-.706L4.86 14.035a.41.41 0 00-.561.152zM43.565 3.48a.41.41 0 00-.561.147l-4.422 7.598c.237.135.475.27.708.409l4.422-7.594a.408.408 0 00-.148-.56zm10.386 11.09a.41.41 0 00.045-.679.41.41 0 00-.454-.027l-7.62 4.4c.14.228.275.465.41.706l7.619-4.4zM9.212 28.5v-.409H.409a.41.41 0 00-.29.698.41.41 0 00.29.12h8.815c-.004-.135-.012-.27-.012-.409zm48.378-.409h-8.814v.818h8.815A.41.41 0 0058 28.5a.408.408 0 00-.41-.409zm-4.04 14.167l-7.238-4.195a17.94 17.94 0 01-.41.706l7.238 4.196a.411.411 0 00.452-.033.409.409 0 00-.042-.674zm-49.505.172a.41.41 0 10.413.706l7.62-4.395c-.144-.233-.275-.47-.41-.711l-7.623 4.4zm35.217 2.953c-.234.143-.471.277-.713.408l4.193 7.23a.41.41 0 00.749-.1.407.407 0 00-.041-.308l-4.188-7.23zM14.284 52.96a.408.408 0 00.46.6.41.41 0 00.248-.187l4.426-7.598c-.242-.135-.48-.266-.708-.409l-4.426 7.594zm14.305-4.726v8.358a.408.408 0 00.698.288.408.408 0 00.12-.288v-8.358h-.818zM42.88 21.196a.614.614 0 10-.613-1.062l-11.64 6.72a2.313 2.313 0 00-2.524-.502 2.312 2.312 0 00-.75.502l-8.308-4.833a.618.618 0 00-.843.221.614.614 0 00.221.841l8.336 4.829a2.306 2.306 0 001.027 2.546 2.32 2.32 0 003.324-1.008c.137-.298.208-.622.21-.95a2.258 2.258 0 00-.079-.584l11.64-6.72zm-13.882 8.415a1.095 1.095 0 01-1.01-.673 1.088 1.088 0 01.797-1.487 1.095 1.095 0 011.306 1.07 1.09 1.09 0 01-1.093 1.07v.02z" fill="#fff"/></svg>