<svg width="45" height="12" fill="none" xmlns="http://www.w3.org/2000/svg"><path d="M22.49 7.665a10.236 10.236 0 003.803 3.194 11.098 11.098 0 004.977 1.131C38.43 12.25 45 7.135 45 5.22c-2.78 2.315-7.39 2.529-9.95 1.571-3.78-1.395-3.12-4.176-5.88-5.99a5.398 5.398 0 00-2.84-.8c-1.01 0-1.999.279-2.84.8a4.61 4.61 0 00-1 .753 4.891 4.891 0 00-1-.753A5.409 5.409 0 0018.645 0 5.409 5.409 0 0015.8.801c-2.75 1.86-2.09 4.586-5.87 5.99-2.56.93-7.17.744-9.93-1.572 0 1.916 6.55 7.032 13.71 6.771a11.098 11.098 0 004.977-1.13 10.236 10.236 0 003.803-3.195z" fill="#826550"/></svg>