<svg width="14" height="16" fill="none" xmlns="http://www.w3.org/2000/svg"><path d="M12.482 12.477l-2.907-1.39a.762.762 0 01-.445-.688v-.983a6.552 6.552 0 001.118-1.964c.43-.188.708-.594.708-1.052V5.236c0-.28-.11-.551-.304-.763V2.925c.017-.16.084-1.112-.637-1.898C9.39.346 8.375 0 7 0 5.624 0 4.61.346 3.984 1.027c-.72.786-.654 1.738-.636 1.898v1.547a1.131 1.131 0 00-.305.764V6.4c0 .354.168.684.456.904A6.007 6.007 0 004.565 9.41v.963c0 .282-.16.54-.42.675l-2.714 1.415C.548 12.923 0 13.806 0 14.768V16h14v-1.176c0-1-.582-1.9-1.518-2.347z" fill="#000"/></svg>