<svg width="15" height="17" fill="none" xmlns="http://www.w3.org/2000/svg"><path d="M13.733 15.148c.845-.993 1.267-2.12 1.267-3.382 0-2.109-1.709-3.582-4.102-4.113 1.03-.258 1.804-.541 2.323-1.226A3.71 3.71 0 0014 4.128c0-1.162-.447-1.865-1.341-2.77C11.765.452 10.343 0 8.392 0H0v17h8.805c2.763 0 4.084-.86 4.928-1.852zM4.667 3.362h2.1c1.264 0 1.896.433 1.896 1.38 0 .348-.135 1.004-.406 1.31-.271.308-.736.462-1.396.462H4.667V3.362zm-.025 9.852v-3.089h2.574c.83 0 1.402.164 1.713.492.312.328.468.687.468 1.077 0 .391-.16.741-.481 1.053-.32.312-.824.467-1.51.467H4.642z" fill="#fff"/></svg>