<svg width="52" height="49" fill="none" xmlns="http://www.w3.org/2000/svg"><path d="M51.434 0h-.243c-2.335 7.615-2.962 16.904-9.462 20.44-1.203-3.318-4.154-4.843-7.52-6.299-2.144-.92-4.6-2.535-6.673-2.614a2.24 2.24 0 00-1.516.317 2.24 2.24 0 00-1.516-.317c-2.022.08-4.539 1.694-6.672 2.615-3.366 1.455-6.318 2.97-7.521 6.298C3.801 16.904 3.184 7.615.849 0H.607A13.633 13.633 0 000 2.377C0 4.278.546 23.629 1.94 30.54c1.254 6.229 6.147 10.725 10.918 13.666C16.184 46.257 21.462 49 26 49s9.836-2.743 13.142-4.793c4.77-2.97 9.664-7.437 10.917-13.666C51.454 23.609 52 4.278 52 2.377A13.621 13.621 0 0051.434 0zM37.403 27.788c-.253 1.535-1.678 3.347-3.397 3.446-3.032.158-4.559-4.377-7.945-4.338-3.387.04-4.933 4.496-7.946 4.338-1.718-.099-3.154-1.911-3.396-3.446a7.332 7.332 0 01.27-2.962 7.428 7.428 0 011.428-2.623c1.112-1.06 2.85-.921 4.73-1.189a8.875 8.875 0 004.914-1.93 8.875 8.875 0 004.913 1.93c1.88.268 3.619.129 4.73 1.189a7.428 7.428 0 011.428 2.623c.292.96.384 1.967.27 2.962z" fill="#826550"/></svg>