<svg width="45" height="104" fill="none" xmlns="http://www.w3.org/2000/svg"><path d="M43.708 0h-.121c-2.841 21.37-5.42 22.392-7.052 22.511-1.632.12-3.667-1.757-4.956-2.501a16.225 16.225 0 00-9.127-2.521 16.226 16.226 0 00-9.127 2.52c-1.29.745-3.525 2.611-4.956 2.502C6.818 22.392 4.229 21.37 1.398 0h-.12C-.809 12.12-.295 49.826 2.485 63.127c2.63 18.382 10.184 34.838 13.54 39.305.684.992 3.555 1.558 6.466 1.568 2.912.01 5.783-.536 6.468-1.568 3.354-4.467 10.91-20.923 13.539-39.306 2.83-13.3 3.294-51.007 1.209-63.126zM22.492 27.94c-3.411.004-6.82.18-10.214.526 1.138-1.736 9.066-3.215 10.214-3.424 1.159.209 9.067 1.688 10.215 3.424a101.504 101.504 0 00-10.215-.526z" fill="#826550"/></svg>