<svg width="57" height="97" fill="none" xmlns="http://www.w3.org/2000/svg"><path d="M51.12 15.134C50.73 9.722 50.51 4.359 48.6 0c-.76 0-1.53 7.26-2.28 10.844-1.48 7.09-3.71 8.222-4.44 8.222-.88-3.833-4.38-4.17-7.8-5.839a11.213 11.213 0 00-3.6-1.191 13.51 13.51 0 00-2 .119c-.663-.09-1.331-.13-2-.12-1.26.19-2.477.594-3.6 1.192-3.42 1.629-6.94 1.986-7.8 5.84-.73 0-3-1.133-4.44-8.223C9.93 7.259 9.16 0 8.4 0 6.49 4.36 6.27 9.722 5.88 15.134 5 38.51 0 51.17 0 61.966 0 87.854 11.71 97 28.5 97S57 87.854 57 61.966c0-10.795-5-23.456-5.88-46.832zm-16.68 9.692c-2.79 1.162-5.35-.705-5.88-.715h-.12c-.53 0-3.09 1.877-5.88.715-.78-3.555 2.4-3.972 5.94-3.883 3.55-.169 6.73.288 5.94 3.883z" fill="#826550"/></svg>