<svg width="72" height="71" fill="none" xmlns="http://www.w3.org/2000/svg"><path d="M36.506 10.92V.508a.51.51 0 00-1.017 0v10.41h1.017zm-13.245 3.55c.29-.177.585-.345.88-.508l-5.205-9.006a.508.508 0 00-.879.509l5.204 9.006zM5.336 17.671a.51.51 0 00.183.692l8.99 5.226c.163-.295.331-.59.509-.88l-8.985-5.226a.506.506 0 00-.697.188zM54.08 4.335a.508.508 0 00-.696.183l-5.489 9.464c.295.168.59.336.88.509l5.488-9.459a.51.51 0 00-.183-.697zM66.974 18.15a.508.508 0 10-.509-.88l-9.458 5.48c.173.284.34.58.509.88l9.458-5.48zM11.435 35.5v-.509H.508a.508.508 0 000 1.018H11.45c-.005-.168-.015-.336-.015-.509zm60.057-.509H60.55v1.018h10.942a.508.508 0 000-1.018zm-5.016 17.646L57.49 47.41c-.162.295-.33.59-.508.88l8.985 5.226a.507.507 0 00.509-.88zm-61.455.213a.507.507 0 00-.183.698.509.509 0 00.697.183l9.458-5.475c-.178-.29-.34-.585-.509-.885l-9.463 5.48zm43.718 3.68c-.29.177-.585.345-.885.508l5.205 9.006a.51.51 0 00.442.255.509.509 0 00.437-.763l-5.2-9.007zm-31.007 9.438a.509.509 0 00.88.514l5.493-9.464c-.3-.168-.595-.331-.88-.509l-5.493 9.459zM35.49 60.08v10.411a.51.51 0 001.016 0v-10.41h-1.017zm17.741-33.678a.763.763 0 00-.762-1.323L38.02 33.45a2.871 2.871 0 00-4.066 0l-10.311-6.02a.765.765 0 00-1.127.856.766.766 0 00.354.467l10.348 6.014a2.885 2.885 0 001.275 3.172A2.875 2.875 0 0038.88 35.5c0-.246-.033-.49-.096-.728l14.448-8.37zM35.998 36.884a1.356 1.356 0 01-1.331-1.624 1.36 1.36 0 011.85-.99 1.357 1.357 0 01.837 1.255 1.359 1.359 0 01-1.356 1.334v.025z" fill="#fff"/></svg>