<svg width="14" height="16" fill="none" xmlns="http://www.w3.org/2000/svg"><path d="M13.364 5.714h-.637v-.571C12.727 2.303 10.163 0 7 0 3.837 0 1.273 2.303 1.273 5.143v.571H.636c-.351 0-.636.256-.636.572v9.143c0 .315.285.571.636.571h12.728c.351 0 .636-.256.636-.571V6.286c0-.316-.285-.572-.636-.572zM8.8 10.85c-.192.488-.62.872-1.164 1.045v1.248c0 .316-.285.571-.636.571-.351 0-.636-.255-.636-.571v-1.248C5.37 11.579 4.849 10.6 5.2 9.707c.352-.892 1.442-1.36 2.436-1.045.994.316 1.515 1.295 1.164 2.188zm2.654-5.136H2.545v-.571c0-2.21 1.995-4 4.455-4s4.454 1.79 4.454 4v.571z" fill="#000"/></svg>