<svg width="226" height="30" fill="none" xmlns="http://www.w3.org/2000/svg"><path d="M3.494 9.668L0 13.158l3.494 3.49 3.495-3.49-3.495-3.49zm215.312.014l-3.495 3.488 3.495 3.489 3.496-3.489-3.496-3.488z" fill="#fff"/><path d="M28.625 13.282h1.28V8.2h2.002V6.931h-3.282v6.351zm9.106.929v-7.74a2.792 2.792 0 00-1.56-2.476c.187.375.286.789.29 1.208v7.78a2.7 2.7 0 01-1.001 2.137 3.205 3.205 0 011 2.257v8.588a2.823 2.823 0 01-.825 1.956c-.52.52-1.221.818-1.957.83h-8.296v1.209h9.567a2.835 2.835 0 001.957-.83c.519-.52.815-1.222.825-1.956v-8.559a3.179 3.179 0 00-1-2.257 2.727 2.727 0 001-2.147z" fill="#636466"/><path d="M28.625 24.178h1.28v-5.113h2.002v-1.279h-3.282v6.392zm20.195 0h1.27V8.199h2.002V6.931H48.82v17.247z" fill="#636466"/><path d="M56.355 3.995c.196.373.299.787.3 1.208v20.762a2.823 2.823 0 01-.828 1.96 2.835 2.835 0 01-1.963.827h-6.775a2.787 2.787 0 01-1.221-.3 2.789 2.789 0 002.491 1.508h6.786a2.835 2.835 0 001.956-.83c.52-.52.815-1.222.826-1.956V6.47a2.782 2.782 0 00-1.572-2.476zm12.65 9.287h1.281V8.2h2.002V6.931h-3.283v6.351zm7.495 5.513a2.72 2.72 0 001.562-2.477V6.471a2.792 2.792 0 00-1.551-2.476c.188.382.287.802.29 1.228v9.857a2.713 2.713 0 01-1.581 2.477l1.891 11.205H73.65l.21 1.198h4.523l-1.881-11.165zm-5.754-1.009h-1.74v10.946h-3.243V30h4.523V19.065h.67l-.21-1.279zM88.6 24.178h1.271V8.199h2.002V6.931H88.6v17.247z" fill="#636466"/><path d="M96.136 3.995c.19.375.293.788.3 1.208v20.762a2.824 2.824 0 01-.83 1.96 2.835 2.835 0 01-1.962.827h-6.775a2.787 2.787 0 01-1.221-.3 2.789 2.789 0 002.492 1.508h6.775a2.835 2.835 0 001.963-.828c.521-.52.819-1.223.829-1.958V6.47a2.782 2.782 0 00-1.571-2.476zm12.649 20.183h1.281V8.199h2.002V6.931h-3.283v17.247z" fill="#636466"/><path d="M116.331 3.995c.187.375.287.789.29 1.208v20.762a2.822 2.822 0 01-.825 1.956c-.52.52-1.221.818-1.957.83h-8.296v1.209h9.547a2.823 2.823 0 002.782-2.786V6.47a2.793 2.793 0 00-1.541-2.476zm12.87-.31v25.047h-3.243V30h4.524V3.685h-1.281zm20.125 0v25.047h-3.623l.371 1.268h4.523V3.685h-1.271zm-7.836 13.542v11.505h-3.252V30h4.523v-8.349l-1.271-4.424zm19.725 1.838h3.743v-1.279h-5.004a2.788 2.788 0 01-1.221-.29 2.76 2.76 0 002.482 1.569zm1.731 1.687l-1.27.3v3.126h1.27v-3.426zm6.275-16.757c.188.375.287.789.29 1.208v5.343l-3.282.759v1.568l4.553-1.059V6.471a2.796 2.796 0 00-1.561-2.477z" fill="#636466"/><path d="M169.221 14.85c.189.375.288.789.291 1.209v9.906a2.833 2.833 0 01-2.793 2.786h-6.775a2.72 2.72 0 01-1.211-.299 2.775 2.775 0 002.482 1.508H168a2.835 2.835 0 001.957-.83c.519-.52.815-1.222.825-1.956v-9.837a2.782 2.782 0 00-1.561-2.487zm-7.545-7.92v6.352h1.271V8.2h2.011V6.931h-3.282zm20.605 10.856h-.41v10.946h-3.253V30h4.524v-9.477l-.861-2.737zm9.257-14.101h-1.681l-3.803 11.844 4.213 13.203h-3.673l.351 1.118.04.15h4.553l-4.213-13.192 4.213-13.123zm10.638 0v25.047h-3.252V30h4.523V3.685h-1.271zm22.55 11.906l-3.495 3.489 1.273 1.27L226 16.863l-1.274-1.27zm-215.303-.02L5.927 19.06l1.274 1.27 3.496-3.488-1.274-1.27z" fill="#636466"/><path d="M34.029 10.526a2.703 2.703 0 01-1.001 2.137 3.207 3.207 0 011 2.257v8.609a2.823 2.823 0 01-.825 1.955c-.52.52-1.221.818-1.957.83H21.69V0h9.567c.737.008 1.44.305 1.959.826.519.521.811 1.226.814 1.96v7.74zm-4.554-5.992h-3.272v6.352h3.282l-.01-6.352zm0 10.855h-3.272v6.392h3.282l-.01-6.391zM51.442 0a2.802 2.802 0 012.791 2.786V23.53a2.823 2.823 0 01-.828 1.958 2.835 2.835 0 01-1.963.828h-6.775a2.805 2.805 0 01-1.972-.82 2.794 2.794 0 01-.82-1.966V2.786A2.77 2.77 0 0143.596.21c.34-.14.704-.21 1.071-.21h6.775zM49.67 4.514h-3.272v17.247h3.272V4.514zm20.496 21.801L68.325 15.33h-1.742v10.985H62.05V0h9.567a2.785 2.785 0 011.951.827 2.77 2.77 0 01.801 1.96v9.846a2.723 2.723 0 01-1.591 2.477l1.891 11.205h-4.503zm-.3-21.801h-3.283v6.352h3.283V4.514zM91.222 0a2.802 2.802 0 012.792 2.786V23.53a2.823 2.823 0 01-.83 1.958 2.835 2.835 0 01-1.962.828h-6.775a2.805 2.805 0 01-1.972-.82 2.794 2.794 0 01-.82-1.966V2.786A2.77 2.77 0 0183.377.21c.34-.14.703-.21 1.07-.209h6.775zm-1.771 4.514h-3.273v17.247h3.273V4.514zM111.417 0c.738.005 1.444.3 1.965.823a2.79 2.79 0 01.817 1.963V23.53a2.823 2.823 0 01-.825 1.955 2.835 2.835 0 01-1.957.83h-9.567V0h9.567zm-1.771 4.514h-3.282v17.247h3.282V4.514zM122.266 0h4.523v26.315h-4.523V0zm24.628 0v26.315h-4.513l-3.273-11.505v11.505h-4.523V0h4.483l3.313 10.786V0h4.513zm17.414 10.866a2.802 2.802 0 012.822 2.776v9.887a2.828 2.828 0 01-2.782 2.786h-6.826a2.798 2.798 0 01-2.782-2.786v-5.413l4.514-1.049v4.694h3.282V15.37h-5.004a2.776 2.776 0 01-2.573-1.713 2.772 2.772 0 01-.209-1.064V2.786a2.788 2.788 0 01.808-1.966 2.777 2.777 0 011.964-.82h6.786a2.81 2.81 0 011.99.808 2.79 2.79 0 01.832 1.978V8.12l-4.554.999V4.514h-3.282v6.352h5.014zm19.324 2.257l4.213 13.192h-4.553v-.15l-3.393-10.795h-.41v10.985h-4.523V0h4.523v10.866h.34L183.252 0h4.593l-4.213 13.123zM195.231 0h4.523v26.315h-4.523V0z" fill="#fff"/></svg>