<svg width="23" height="26" fill="none" xmlns="http://www.w3.org/2000/svg"><path d="M21.058 23.167C22.352 21.649 23 19.926 23 17.995c0-3.225-2.62-5.478-6.29-6.291 1.58-.394 2.766-.827 3.563-1.875.796-1.048 1.194-2.22 1.194-3.515 0-1.778-.686-2.854-2.057-4.238C18.04.692 15.86 0 12.868 0H0v26h13.5c4.238 0 6.263-1.316 7.558-2.833zM7.156 5.142h3.22c1.938 0 2.907.662 2.907 2.11 0 .532-.207 1.536-.622 2.005-.416.47-1.13.705-2.14.705H7.156v-4.82zM7.118 20.21v-4.724h3.946c1.274 0 2.15.25 2.628.752.477.502.717 1.05.717 1.648 0 .597-.247 1.133-.738 1.61-.492.476-1.264.714-2.316.714H7.118z" fill="#fff"/></svg>